<?xml version="1.0" encoding="UTF-8" standalone="no"?>
<!-- Created with Inkscape (http://www.inkscape.org/) -->

<svg
   width="104.48756mm"
   height="18.830959mm"
   viewBox="0 0 104.48756 18.830959"
   version="1.1"
   id="svg1"
   xmlns="http://www.w3.org/2000/svg"
   xmlns:svg="http://www.w3.org/2000/svg">
  <defs
     id="defs1" />
  <g
     id="layer1"
     transform="translate(-48.607939,-16.692105)">
    <path
       d="m 145.11656,21.229347 -0.33182,-0.777874 -2.92018,-0.02229 c -0.006,1.972236 -0.23248,14.456986 0.19074,14.859364 0.40333,0.209691 1.41319,0.286702 2.06195,0.198649 1.04994,-0.142275 0.75459,-0.490396 0.76493,-1.841462 l 0.0218,-3.373397 c 0.16196,0.06717 2.77121,2.472721 5.56016,0.607235 1.54781,-1.035295 2.53509,-2.405058 2.62508,-4.749157 0.0907,-2.363819 -0.80666,-3.93463 -2.3115,-5.059671 -2.29397,-1.71478 -4.08001,-0.620465 -5.66116,0.158608 z"
       style="fill:#0ac5f5;fill-rule:evenodd;stroke-width:0.352777"
       id="path21-5" />
    <path
       d="m 48.607939,31.36065 3.063905,0.03358 1.336179,-3.114317 6.093521,-0.0182 1.253135,3.092198 3.115517,0.03937 C 63.409483,30.563585 58.269201,18.566832 57.562624,17.20356 l -3.116716,-0.104634 c -0.454906,1.894025 -2.123119,5.079815 -2.929533,7.066198 -0.536715,1.321539 -2.832624,6.120861 -2.908436,7.195526 z"
       style="fill:#323232;fill-rule:evenodd;stroke-width:0.352777"
       id="path22-3" />
    <path
       d="m 132.50608,26.535892 3.6e-4,-0.203235 c 0.0202,-8.250471 -10.96051,-7.841637 -11.5409,-0.991868 -0.45057,5.318998 5.46731,8.011041 9.46815,4.998959 0.97603,-0.734906 2.06869,-2.351825 2.07229,-3.803856 z"
       style="fill:#0ac5f5;fill-rule:evenodd;stroke-width:0.352777"
       id="path23-2" />
    <path
       d="m 99.213832,20.368959 c -7.54559,1.494999 -5.12279,12.814208 2.587618,11.008483 2.85206,-0.667984 4.78472,-3.408216 4.17455,-6.717089 -0.50983,-2.764504 -3.33311,-4.970878 -6.762168,-4.291394 z"
       style="fill:#323232;fill-rule:evenodd;stroke-width:0.352777"
       id="path24-4" />
    <path
       d="m 118.50492,26.95792 c -0.55181,0.230575 -2.43575,2.351542 -5.11866,1.429488 -5.09611,-1.751468 -2.71363,-10.372673 3.04087,-8.327023 1.19151,0.42372 1.42833,1.063376 2.28103,1.400984 0.28335,-0.181398 1.44966,-1.311238 1.58114,-1.726069 0.29489,-0.93119 -0.72076,-1.354664 -1.33667,-1.776938 -4.33648,-2.972501 -11.40892,-0.627662 -11.60327,6.151341 -0.19459,6.77946 7.32147,9.173265 11.51187,6.242992 0.5317,-0.371651 1.61907,-0.911506 1.41128,-1.700633 -0.12813,-0.486339 -1.31603,-1.50844 -1.76759,-1.694142 z"
       style="fill:#0ac5f5;fill-rule:evenodd;stroke-width:0.352777"
       id="path25-5" />
    <path
       d="m 84.894782,29.786205 -1.53317,-1.649022 c -0.79608,0.432329 -1.76516,1.131251 -3.24696,0.885577 -1.12575,-0.186655 -1.92592,-0.875276 -2.07948,-2.058138 l 7.92154,-0.0139 c 0.0691,-3.635439 -0.71357,-5.478348 -3.49172,-6.419804 -3.15891,-1.070573 -5.87134,0.702273 -6.866316,2.708094 -1.428324,2.879614 -0.206586,5.806783 1.619286,7.224771 1.99548,1.549715 6.07288,1.478701 7.67682,-0.677578 z"
       style="fill:#323232;fill-rule:evenodd;stroke-width:0.352777"
       id="path26-9" />
    <path
       d="m 73.903546,29.37977 c -0.4681,-0.756742 -0.977933,-1.220044 -1.438837,-1.887993 -1.116892,0.493994 -1.85275,1.723176 -3.709099,1.311697 -3.890004,-0.861835 -2.336444,-8.465489 3.200677,-5.058473 0.365406,0.224825 -0.10989,0.0011 0.435715,0.239713 l 1.500291,-1.8621 c -3.61071,-3.638544 -10.154092,-1.75175 -10.174977,3.800963 -0.01775,4.770782 5.136189,7.078898 8.972183,4.575697 0.632212,-0.412432 0.879368,-0.575098 1.214047,-1.119504 z"
       style="fill:#323232;fill-rule:evenodd;stroke-width:0.352777"
       id="path27-8" />
    <path
       d="M 137.60029,21.430889 137.4057,21.02396 c -0.15406,-0.364454 -0.001,-0.165064 -0.21163,-0.547757 l -2.87485,-0.05422 c -0.0552,2.457376 -0.15642,9.624574 0.0569,10.531246 0.19604,0.833542 2.00103,0.496428 2.82279,0.436209 0.61686,-4.322367 -1.33258,-7.372831 2.7899,-8.351753 0.86423,-0.20514 0.74859,-0.87644 0.57513,-2.714091 -1.27285,-0.171309 -2.07158,0.577778 -2.96361,1.107297 z"
       style="fill:#0ac5f5;fill-rule:evenodd;stroke-width:0.352777"
       id="path28-8" />
    <path
       d="m 90.674682,21.624281 -0.1221,-1.197749 -2.91926,0.02568 -0.0103,10.884659 2.94562,0.02737 c 0.0192,-4.733106 -0.76199,-8.165804 3.28203,-8.347202 l 0.018,-2.689362 c -1.73806,-0.09095 -2.10996,0.926358 -3.19397,1.296597 z"
       style="fill:#323232;fill-rule:evenodd;stroke-width:0.352777"
       id="path29-7" />
    <path
       d="m 99.238772,23.070315 c -3.24075,1.64306 -1.29875,7.197431 2.194628,5.700527 3.20812,-1.375055 1.3753,-7.510309 -2.194628,-5.700527 z"
       style="fill:#feffff;fill-rule:evenodd;stroke-width:0.352777"
       id="path31-7" />
    <path
       d="m 125.66446,23.095997 c -3.30577,1.493341 -1.25292,7.140105 2.10012,5.605489 3.23666,-1.481559 1.4194,-7.195491 -2.10012,-5.605489 z"
       style="fill:#feffff;fill-rule:evenodd;stroke-width:0.352777"
       id="path32-1" />
    <path
       d="m 146.32557,23.082556 c -2.96506,1.752703 -1.0552,7.16935 2.13204,5.58344 3.10109,-1.543012 1.01536,-7.444092 -2.13204,-5.58344 z"
       style="fill:#feffff;fill-rule:evenodd;stroke-width:0.352777"
       id="path33-4" />
    <path
       d="m 78.158712,24.808378 4.68248,0.0091 c 0.15332,-2.899335 -4.78179,-2.685552 -4.68248,-0.0091 z"
       style="fill:#feffff;fill-rule:evenodd;stroke-width:0.352777"
       id="path34-8" />
    <path
       d="m 54.296224,25.500809 1.64112,0.05641 0.811176,-0.0091 1.018997,-0.01609 -1.633923,-4.03443 c -0.542254,0.500273 -1.556171,3.074982 -1.83737,4.003245 z"
       style="fill:#feffff;fill-rule:evenodd;stroke-width:0.352777"
       id="path35-1" />
  </g>
</svg>
